<?xml version="1.0" encoding="UTF-8" standalone="no"?><!DOCTYPE svg PUBLIC "-//W3C//DTD SVG 1.1//EN" "http://www.w3.org/Graphics/SVG/1.1/DTD/svg11.dtd"><svg width="100%" height="100%" viewBox="0 0 2134 2134" version="1.1" xmlns="http://www.w3.org/2000/svg" xmlns:xlink="http://www.w3.org/1999/xlink" xml:space="preserve" xmlns:serif="http://www.serif.com/" style="fill-rule:evenodd;clip-rule:evenodd;stroke-linecap:round;stroke-miterlimit:1;"><rect id="Artboard4" x="0" y="0" width="2133.33" height="2133.33" style="fill:none;"/><clipPath id="_clip1"><rect x="0" y="0" width="2133.33" height="2133.33"/></clipPath><g clip-path="url(#_clip1)"><g id="Layer1"><path d="M2133.33,138.27c0,-76.313 -61.956,-138.27 -138.269,-138.27l-1856.79,-0c-76.313,-0 -138.27,61.957 -138.27,138.27l0,1856.79c0,76.313 61.957,138.269 138.27,138.269l1856.79,0c76.313,0 138.269,-61.956 138.269,-138.269l0,-1856.79Z" style="fill:#fff;"/></g><g><path d="M148.504,1549.74l-0,442.05l430.32,0" style="fill:none;stroke:#000;stroke-width:229.17px;"/><path d="M148.504,1991.79l813.515,-813.515" style="fill:none;stroke:#000;stroke-width:229.17px;"/></g><g><path d="M1545.16,145.682l442.05,-0l0,430.32" style="fill:none;stroke:#000;stroke-width:229.17px;"/><path d="M1987.21,145.682l-772.008,772.008" style="fill:none;stroke:#000;stroke-width:229.17px;"/></g><g><path d="M909.215,1991.79l1078,0" style="fill:none;stroke:#000;stroke-width:229.17px;"/><path d="M1987.21,1990.25l0,-440.514" style="fill:none;stroke:#000;stroke-width:229.17px;"/></g><g><path d="M1213.22,145.682l-1064.71,-0" style="fill:none;stroke:#000;stroke-width:229.17px;"/><path d="M148.504,147.218l-0,395.804" style="fill:none;stroke:#000;stroke-width:229.17px;"/></g></g></svg>